<svg version="1.1" id="Ebene_2" xmlns="http://www.w3.org/2000/svg" x="0" y="0" viewBox="0 0 131.42 131.42" xml:space="preserve"><style>.st0{fill:#a7aaad}</style><path class="st0" d="M35.66 19.38c-6.45 0-13.1 5.07-14.82 11.3L1.51 100.41c-.86 3.09-.4 6 1.27 8.2 1.67 2.19 4.34 3.4 7.52 3.4h27.56l.2-1.08c-4.36-1.68-7.93-4.11-10.6-7.2-5.41-6.25-7.89-14.67-7.37-25.04.62-12.52 3.89-23.56 9.72-32.82 5.83-9.26 12.14-15.96 18.74-19.9 3.95-2.36 7.65-4.22 11-5.52l-.2-1.07H35.66zM92.81 19.42l-.21 1.07c4.07 1.66 7.56 4.02 10.37 7.03 5.8 6.22 8.48 14.72 7.96 25.26-.61 12.25-4.43 24.03-11.35 35.03-6.91 10.97-14.86 18.24-23.62 21.59l-4.5 1.56.16 1.09h24.15c6.45 0 13.1-5.07 14.82-11.3l19.33-69.72c.86-3.09.4-6-1.27-8.2-1.67-2.19-4.34-3.4-7.52-3.4H92.81z"/></svg>