<svg xmlns="http://www.w3.org/2000/svg" width="500" height="452.85" viewBox="0 0 500 452.85">
  <defs>
    <clipPath id="clip-oo-logo-plugin">
      <rect width="500" height="452.85"/>
    </clipPath>
  </defs>
  <g id="oo-logo-plugin" clip-path="url(#clip-oo-logo-plugin)">
    <path id="path_1" d="M500.57,413.125V40.307A40,40,0,0,0,460.552.29H311.033c100.189,26.7,174.112,117.8,174.112,226.426S411.221,426.44,311.033,453.142H460.552a40,40,0,0,0,40.018-40.017ZM190.18.29H40.587A40.041,40.041,0,0,0,.57,40.307V413.052a39.995,39.995,0,0,0,40.017,40.017H190.18C89.991,426.44,16.068,335.345,16.068,226.716S89.991,26.993,190.18.29Z" transform="translate(-0.57 -0.29)" fill="#3f9de4"/>
  </g>
</svg>
